<mxfile host="app.diagrams.net" modified="2024-03-03T07:54:01.332Z" agent="Mozilla/5.0 (Windows NT 10.0; Win64; x64) AppleWebKit/537.36 (KHTML, like Gecko) Chrome/122.0.0.0 Safari/537.36 Edg/122.0.0.0" version="24.0.1" etag="l6L8qmMqtnzysHBQ34Zn" type="github">
  <diagram name="Страница — 1" id="VyUjE6KK7cxUxKlpOTqV">
    <mxGraphModel>
      <root>
        <mxCell id="0" />
        <mxCell id="1" parent="0" />
      </root>
    </mxGraphModel>
  </diagram>
</mxfile>
